<svg width="22" height="22" viewBox="0 0 22 22" fill="none" xmlns="http://www.w3.org/2000/svg">
<path fill-rule="evenodd" clip-rule="evenodd" d="M2.32431 18.9205V7.79465H20.3508V18.9205C20.3508 19.4901 20.0329 19.8079 19.4634 19.8079H3.21173C2.64219 19.8079 2.32431 19.5033 2.32431 18.9205ZM2.32431 4.17879C2.32431 3.58276 2.62895 3.29131 3.21173 3.29131H19.4634C20.0329 3.29131 20.3508 3.60925 20.3508 4.17879V6.29796H2.32431V4.17879ZM6.0859 0.933736V1.78144H2.89386C1.87399 1.78144 0.827637 2.82779 0.827637 3.84766V19.2516C0.827637 19.9801 1.38391 20.7615 2.07265 21.1059C2.27133 21.1986 2.61571 21.3179 2.89386 21.3179H19.7945C20.0727 21.3179 20.4038 21.1986 20.6157 21.1059C21.3044 20.7748 21.8607 19.9934 21.8607 19.2516V3.84766C21.8607 2.82779 20.8144 1.78144 19.7945 1.78144H16.6025V0.933736C16.6025 0.589365 16.2714 0.271484 15.7548 0.271484C15.4634 0.271484 15.0925 0.642345 15.0925 0.933736V1.78144H7.58259V0.933736C7.58259 0.589365 7.25147 0.271484 6.73491 0.271484C6.44352 0.284729 6.0859 0.642345 6.0859 0.933736Z" fill="white"/>
<path fill-rule="evenodd" clip-rule="evenodd" d="M9.83378 14.2715C9.68808 14.0596 8.60198 13.0132 8.27085 12.6821C8.07218 12.4834 7.95297 12.298 7.5821 12.298C7.10528 12.298 6.82715 12.6423 6.82715 13.1456C6.82715 13.5297 7.80728 14.3907 8.15165 14.7351C8.49602 15.0794 9.35695 16.0596 9.74105 16.0596C10.0324 16.0596 10.0987 16.0596 10.3768 15.8477L11.6881 14.7218C11.7808 14.6423 11.794 14.6159 11.8867 14.5364C11.9795 14.457 11.9795 14.4701 12.0722 14.3907L14.3503 12.4437C14.4298 12.3775 14.4563 12.3377 14.549 12.2582C15.0258 11.8609 15.9 11.2649 15.9 10.7881C15.9 10.4172 15.6086 10.1258 15.2907 10.0331C14.8007 9.90064 14.4166 10.3775 14.006 10.7219L13.0656 11.5165C12.9729 11.6092 12.9464 11.6093 12.8536 11.6887L10.602 13.6225C10.3238 13.8609 10.1384 14.0728 9.83378 14.2715Z" fill="white"/>
</svg>
