<svg width="13" height="12" viewBox="0 0 13 12" fill="none" xmlns="http://www.w3.org/2000/svg">
<path fill-rule="evenodd" clip-rule="evenodd" d="M7.8645 0.854126C7.33325 0.854126 6.88013 1.30725 6.88013 1.86454C7.78638 1.86454 8.25513 2.74475 7.90617 3.43746C7.70825 3.8385 7.31763 4.06767 6.88013 4.06767V5.49475H8.18742V6.17183C8.18742 6.64058 8.69263 6.77079 8.93221 6.50517C9.10408 6.31767 9.052 5.85413 9.052 5.49475H11.4687C11.3853 5.33329 11.4374 5.31767 11.2551 4.98433C11.1874 4.86454 11.052 4.70829 10.9478 4.62496C10.5312 4.29163 10.3072 4.23954 9.77075 4.23954V3.56246C10.052 3.56246 10.2291 3.59892 10.4114 3.59892C10.4374 3.45308 10.4947 3.37496 10.4947 3.18746C10.4947 2.89579 10.3593 2.57288 10.1458 2.41142C9.74471 2.11975 9.427 2.17183 8.85409 2.17183V1.8385C8.85409 1.28121 8.37492 0.854126 7.8645 0.854126ZM6.89575 3.37496H6.21346V5.49475H5.56242C5.56242 4.43746 4.45304 4.07809 3.83846 4.54683C3.50513 4.80204 3.40096 5.06767 3.35929 5.49475H1.62492C1.69263 5.34892 1.66658 5.28121 1.82804 4.99996C2.09367 4.56246 2.57284 4.23954 3.11971 4.23954H3.31763V3.56246C3.04159 3.56246 2.8645 3.59892 2.68221 3.59892C2.6145 3.30725 2.52075 3.10413 2.69263 2.73433C3.01554 2.09371 3.6145 2.17183 4.2395 2.17183C4.2395 1.77079 4.22908 1.45308 4.53117 1.14579C4.82804 0.854126 5.2395 0.786417 5.64054 0.947876C5.70825 0.973917 5.73429 0.999959 5.78638 1.04163C5.82804 1.06767 5.90617 1.13538 5.93221 1.16142C5.95825 1.18746 6.01554 1.26558 6.04158 1.29163C6.26554 1.61454 6.21346 2.10413 6.21346 2.52079C6.49471 2.52079 6.97388 2.47913 7.16138 2.61454C7.37492 2.74475 7.41138 3.06767 7.19784 3.26558C7.11971 3.34892 7.052 3.37496 6.89575 3.37496ZM1.65096 6.17183C1.65096 6.43746 1.95825 6.86454 2.16138 7.026C2.56242 7.33329 2.78638 7.401 3.31763 7.401V8.07808C3.04159 8.07808 2.8645 8.026 2.68221 8.026C2.6145 8.33329 2.50513 8.53121 2.70825 8.90621C3.02596 9.53121 3.62492 9.46871 4.2395 9.46871C4.2395 9.86454 4.22909 10.1875 4.54679 10.4948C4.88013 10.8281 5.45304 10.8645 5.802 10.5885C5.93221 10.4791 5.95825 10.4531 6.052 10.3177C6.14575 10.1875 6.21346 9.94788 6.21346 9.77079C5.81242 9.77079 5.62492 9.66663 5.37492 9.42704C4.71867 8.77079 5.18742 7.57288 6.21346 7.57288V6.17183H4.90617V5.53121C4.90617 4.81246 4.04158 4.93225 4.04158 5.43746V6.17183H1.65096ZM5.11971 0.197876C4.58846 0.197876 4.06763 0.572877 3.81242 0.999959C3.70825 1.16142 3.65096 1.29163 3.59888 1.52079C2.45304 1.52079 1.68221 2.5885 1.99992 3.66663C2.02596 3.74475 2.052 3.77079 2.06763 3.86454C0.562419 4.66663 0.562419 6.97392 2.06763 7.77079C2.052 7.8385 2.02596 7.89579 2.01554 7.94788C1.92179 8.2135 1.92179 8.34892 1.93221 8.62496C1.98429 9.401 2.68221 10.1198 3.59888 10.1198C3.69263 10.5052 3.8645 10.7864 4.11971 11.0156C4.40096 11.2656 4.76034 11.4114 5.11971 11.4375H5.31763C5.57284 11.427 5.81242 11.3489 6.052 11.2291C6.16138 11.1614 6.22909 11.1041 6.31763 11.026C6.45304 10.9323 6.47909 10.8385 6.54679 10.802C6.58846 10.8281 7.04158 11.4375 7.74471 11.4375H7.77075C8.26554 11.4375 8.6145 11.3489 8.97388 11.026C9.22908 10.802 9.40096 10.5052 9.49471 10.1198C10.651 10.1198 11.4114 9.04163 11.0937 7.97392C11.0676 7.89579 11.0416 7.85413 11.026 7.77079C11.1614 7.69267 11.3593 7.56246 11.4687 7.43746C12.6249 6.29163 12.2395 4.50517 11.026 3.86454C11.0416 3.78642 11.0676 3.74475 11.0937 3.68225C11.427 2.64058 10.6822 1.52079 9.49471 1.52079C9.40096 1.11975 9.22908 0.854125 8.97388 0.614543C8.69263 0.359333 8.34888 0.2135 7.97388 0.197876H7.77075C7.52075 0.2135 7.28117 0.28121 7.04159 0.411418C6.93221 0.46871 6.8645 0.53121 6.77075 0.598918C6.64054 0.708292 6.6145 0.786418 6.54679 0.828084C6.47909 0.786418 6.45304 0.708292 6.31763 0.598918C5.92179 0.28121 5.68221 0.197876 5.14575 0.197876H5.11971ZM9.97388 7.401H9.77075V8.07808C10.052 8.07808 10.2291 8.026 10.4114 8.026C10.4791 8.31767 10.5728 8.52079 10.401 8.89579C10.078 9.53121 9.47909 9.46871 8.85409 9.46871C8.85409 9.85413 8.88013 10.1718 8.56242 10.4948C7.98429 11.0677 6.88013 10.7187 6.88013 9.71871V9.10413C6.59888 9.10413 6.11971 9.14579 5.93221 9.026C5.6145 8.80204 5.71867 8.25517 6.19783 8.25517H6.88013V6.17183H7.53117C7.53117 6.43746 7.57284 6.62496 7.73429 6.85413C7.85409 7.01558 7.95825 7.10413 8.14575 7.19788C8.58846 7.41142 9.09367 7.30725 9.427 6.95829C9.6145 6.77079 9.70825 6.50517 9.73429 6.17183H11.4374C11.4374 6.43746 11.1197 6.88017 10.9478 7.01558C10.6666 7.22913 10.3749 7.401 9.97388 7.401Z" fill="#92C146"/>
</svg>
