<svg width="19" height="20" viewBox="0 0 19 20" fill="none" xmlns="http://www.w3.org/2000/svg">
<path fill-rule="evenodd" clip-rule="evenodd" d="M7.50703 17.1296H11.4727C11.2207 18.2326 9.48324 19.083 8.2365 18.1395C8.02428 17.98 7.97122 17.9269 7.81206 17.7275C7.69269 17.5814 7.52029 17.3555 7.50703 17.1296ZM9.74853 19.9867C11.2473 19.8804 12.5868 18.8306 12.9847 17.1296C14.258 17.1296 15.5446 17.1296 16.8178 17.1296C17.6667 17.1296 17.8657 17.1428 18.3697 16.7707C19.1389 16.186 19.3114 14.9369 18.2768 14.0731C17.68 13.5814 17.0301 12.7176 16.7383 12C16.5924 11.6279 16.473 11.3754 16.3669 10.9501C15.9159 9.14283 16.3934 8.25247 15.9557 7.80065C15.916 7.76078 15.7966 7.66776 15.7568 7.64119C15.2661 7.3887 14.6957 7.74751 14.6957 8.43854C14.6957 10.6578 14.9212 11.8671 15.9292 13.5016C16.1945 13.9269 16.8576 14.7907 17.2688 15.1096C17.6402 15.3887 17.5606 15.4286 17.5075 15.6678C17.4014 15.6943 17.4014 15.7076 17.2821 15.7076H1.73749C1.56507 15.7076 1.26 15.5481 1.56506 15.2691L2.10886 14.7375C3.42193 13.4219 4.03204 11.8538 4.27078 9.98007C4.52279 8.01329 3.62085 5.15614 5.68992 3.10963C6.15414 2.6578 6.6449 2.1927 7.28154 1.94021C9.35061 1.08971 9.69544 1.66113 10.2127 1.35549C10.3984 1.24917 10.5178 1.0897 10.5576 0.850496C10.6239 0.425248 10.3188 0 9.84134 0C8.14364 0 7.14891 0.252487 5.79605 1.11627C4.96047 1.64783 4.05857 2.6711 3.60762 3.57475C1.85686 7.10963 3.87289 9.38206 1.90992 12.6379C1.81707 12.784 1.71095 12.9435 1.60485 13.0897C1.49874 13.2359 1.37936 13.4086 1.25999 13.5415L0.477459 14.2724C0.225457 14.5249 0 14.9635 0 15.3488V15.5747C0 16.3721 0.755998 17.1428 1.56506 17.1428H6.02151C6.03477 17.9003 6.88363 19.0033 7.56005 19.4285C8.11711 19.7741 8.70072 19.9601 9.28431 20H9.74853V19.9867Z" fill="white"/>
</svg>
