<svg width="11" height="13" viewBox="0 0 11 13" fill="none" xmlns="http://www.w3.org/2000/svg">
<path fill-rule="evenodd" clip-rule="evenodd" d="M2.41146 1.13539V1.68227C2.04167 1.68227 1.74479 1.77081 1.49479 1.88019C0.734374 2.18748 0.09375 3.05206 0.09375 3.88019V9.9479C0.09375 10.2656 0.239584 10.651 0.348958 10.8646C0.786458 11.7187 1.625 12.1354 2.59896 12.1354H8.02604C9.01563 12.1354 9.8125 11.7344 10.2812 10.8802C10.3854 10.6823 10.5312 10.2552 10.5312 9.97394V3.88019C10.5312 3.35935 10.1875 2.62498 9.82812 2.33331C9.34896 1.95831 8.98438 1.68227 8.22917 1.68227C8.22917 1.25519 8.31771 0.588519 7.66667 0.520811C7.35938 0.49477 7.05208 0.760394 7.05208 1.05206V1.68227H3.57292V1.05206C3.57292 0.760394 3.26563 0.49477 2.95833 0.520811C2.65104 0.546853 2.41146 0.802061 2.41146 1.13539ZM1.26562 3.98435C1.26562 3.37498 1.76042 2.90623 2.41146 2.85414C2.41146 3.11977 2.375 3.47914 2.46875 3.66664C2.76042 4.29164 3.57292 3.99998 3.57292 3.47914V2.85414H7.05208V3.47914C7.05208 3.99998 7.88021 4.28123 8.17188 3.66664C8.25521 3.47914 8.22917 3.11977 8.22917 2.85414C8.70833 2.89581 9.05208 3.11977 9.23958 3.50519C9.42708 3.88019 9.35938 4.6406 9.35938 5.16144H1.26562V3.98435ZM1.26562 9.80206V6.33331H9.35938V9.80206C9.35938 10.4114 8.85417 10.9479 8.30729 10.9479H2.33333C1.78646 10.9479 1.26562 10.4114 1.26562 9.80206Z" fill="#92C146"/>
</svg>
