<svg width="13" height="12" viewBox="0 0 13 12" fill="none" xmlns="http://www.w3.org/2000/svg">
<path fill-rule="evenodd" clip-rule="evenodd" d="M11.7919 0.843872L12.0737 1.24685C10.6274 2.41685 9.33467 3.76449 8.22557 5.25789C6.96648 6.82226 5.88239 8.5197 4.99265 10.3199L4.3936 10.7255C4.04028 10.9589 3.70269 11.2155 3.38313 11.4934C3.25078 11.0708 3.09696 10.6552 2.92207 10.2483L2.69541 9.72092C2.46188 9.12953 2.15907 8.56794 1.79295 8.04809C1.5607 7.72025 1.23581 7.46937 0.859863 7.32757C1.0524 7.07576 1.29295 6.86476 1.5679 6.70699C1.84285 6.54922 2.14643 6.44797 2.46101 6.40879C2.87502 6.40879 3.336 6.97188 3.84387 8.09806L4.09278 8.66384C5.07627 7.03368 6.25432 5.52923 7.60136 4.18373C8.83967 2.88491 10.2495 1.76134 11.7919 0.843872Z" fill="white"/>
</svg>
