<svg width="12" height="13" viewBox="0 0 12 13" fill="none" xmlns="http://www.w3.org/2000/svg">
<path fill-rule="evenodd" clip-rule="evenodd" d="M5.70833 0.640625C5 0.651041 4.30729 0.802083 3.71875 1.05208C3.4375 1.1875 3.29167 1.23958 3.02604 1.40104C2.86458 1.49479 2.74479 1.57292 2.61458 1.68229C1.89583 2.19792 1.42708 2.69271 0.958333 3.45312C0.666667 3.94792 0.520834 4.375 0.359375 4.92188C0.265626 5.22917 0.1875 5.74479 0.1875 6.13542C0.1875 6.98437 0.265625 7.70833 0.614583 8.49479L0.828125 8.95833C1.33333 9.8125 1.375 9.85417 2.02604 10.5208C2.16146 10.651 2.45313 10.8646 2.58854 10.974C2.85417 11.1719 2.98437 11.2135 3.22917 11.3594C3.86458 11.7448 4.97396 12.026 5.68229 12.026C6.54687 12.026 7.26563 11.9479 8.04167 11.599C8.28125 11.4948 8.52083 11.3854 8.74479 11.2552C9.69271 10.6823 10.3854 9.97396 10.9219 8.98438C11.3073 8.25521 11.5729 7.38542 11.5729 6.53125V6.49479C11.5729 5.86458 11.5729 5.57292 11.4115 4.93229C11.375 4.76042 11.3073 4.57292 11.2552 4.41146L11.0521 3.92188C11.0156 3.83854 10.9844 3.77083 10.9323 3.69271C10.8958 3.61458 10.8542 3.5625 10.8125 3.46875C10.7188 3.31771 10.6406 3.1875 10.5312 3.05208C10.4271 2.89583 10.2292 2.625 10.0781 2.47917C10.0156 2.42708 9.97396 2.375 9.90625 2.30729C9.45312 1.86458 9.09375 1.59896 8.53125 1.29167C8.45312 1.25521 8.40104 1.21354 8.30729 1.17188C8.14583 1.09375 7.98438 1.04167 7.8125 0.973958C7.30729 0.760417 6.70833 0.651041 6.10417 0.640625H5.70833ZM5.25521 3.38542V6.40104C5.25521 6.64063 5.58854 6.89583 5.73438 7.04167L6.83854 8.14583C7.02604 8.33333 7.21354 8.59896 7.53125 8.59896C7.85417 8.59896 8.10417 8.35938 8.10417 8C8.10417 7.74479 7.88021 7.58854 7.74479 7.45312L6.49479 6.1875C6.42708 6.13542 6.40104 6.13542 6.38542 6.04167C6.34896 5.64063 6.4375 3.54687 6.375 3.29167C6.19792 2.66667 5.25521 2.85417 5.25521 3.38542ZM1.34896 6.57292C1.34896 5.73437 1.40104 5.13542 1.77083 4.375C1.90625 4.11979 2.10417 3.77083 2.28125 3.54688C2.5625 3.22917 2.76042 3.01562 3.09375 2.74479C3.16146 2.69271 3.1875 2.68229 3.25521 2.625C3.85417 2.1875 4.8125 1.78646 5.64062 1.78646C6.47917 1.78646 7.07813 1.83854 7.83854 2.22917C8.8125 2.70833 9.49479 3.40104 9.98438 4.35938C10.5625 5.52083 10.5729 7.10417 9.98438 8.28125L9.70833 8.78646C9.65104 8.86458 9.64062 8.89583 9.59896 8.94792C9.34896 9.29167 9.01563 9.66667 8.66667 9.92188C8.34896 10.1615 8.22917 10.2396 7.85417 10.4271C6.68229 11.0156 5.09375 11.026 3.93229 10.4375C3.73437 10.349 3.4375 10.1719 3.25521 10.0417C2.58854 9.53125 2.16146 9.05208 1.78646 8.29167C1.58854 7.89583 1.34896 7.16146 1.34896 6.57292Z" fill="#92C146"/>
</svg>
