<svg width="171" height="112" viewBox="0 0 171 112" fill="none" xmlns="http://www.w3.org/2000/svg">
<mask id="mask0_1_3187" style="mask-type:luminance" maskUnits="userSpaceOnUse" x="-121" y="-26" width="292" height="206">
<path d="M-110.469 -25.4532C-116.146 -25.4532 -120.802 -20.8022 -120.802 -15.1199V169.042C-120.802 174.719 -116.146 179.375 -110.469 179.375H160.589C166.266 179.375 170.922 174.719 170.922 169.042V-15.1199C170.922 -20.8022 166.266 -25.4532 160.589 -25.4532H-110.469Z" fill="white"/>
</mask>
<g mask="url(#mask0_1_3187)">
<path fill-rule="evenodd" clip-rule="evenodd" d="M4.18758 98.1874C7.66674 106.078 14.4272 109.573 20.8959 111H210.865C228.802 104.307 238.349 55.5884 211.745 43.7343C197.172 37.2395 187.135 36.1041 184.307 25.8645C172.385 -17.172 129.667 9.66656 113.854 5.16135C57.6251 -10.922 66.0678 67.828 31.0261 60.6926C14.948 57.4114 -6.01555 74.9999 4.18758 98.1874Z" fill="#EAF0F8"/>
</g>
</svg>
