<svg width="39" height="34" viewBox="0 0 39 34" fill="none" xmlns="http://www.w3.org/2000/svg">
<path fill-rule="evenodd" clip-rule="evenodd" d="M9.98633 14.4105C9.98633 15.4834 10.5029 16.384 11.0989 16.9006C11.6552 17.3906 14.8605 19.4834 15.4433 19.8277C16.2248 20.2913 16.9135 20.8079 17.7214 21.2317C17.4301 21.6556 14.3837 24.7549 13.8804 25.2582C13.589 25.5496 13.4301 25.788 13.1254 26.0794C12.6089 26.596 12.0128 27.1257 12.0128 28.1191C12.0128 30.1986 14.5161 31.2979 16.1188 29.682L23.3638 22.1456C24.2777 21.0595 24.4102 19.8145 23.3638 18.7946C22.94 18.3973 21.0194 17.3509 20.3837 16.9668C20.0393 16.7681 19.0989 16.3045 18.9135 16.0396C19.9069 15.5231 20.781 14.8344 21.7612 14.3178C21.7612 14.7019 21.3903 16.1456 22.887 16.7946C23.3638 17.0065 24.7943 17.1787 25.4698 17.2847L30.7678 18.1456C32.5426 18.1456 33.4168 15.6423 31.7877 14.5695C31.1519 14.1456 28.8075 13.8807 27.8936 13.735L25.8141 13.4171C25.8141 10.7019 26.7413 9.56284 25.8141 7.86748C25.6817 7.61582 25.5625 7.4701 25.4168 7.21844C25.2579 6.95354 25.1519 6.78138 24.9665 6.54297C23.5095 4.58271 21.6685 4.76812 19.8671 5.9072L12.5824 10.4768C11.1916 11.3112 9.98633 12.6754 9.98633 14.4105Z" fill="white"/>
<path fill-rule="evenodd" clip-rule="evenodd" d="M30.9927 31.5231C29.496 31.5231 27.8404 30.8211 26.953 29.7086C25.9199 28.4238 25.5888 27.7615 25.5888 25.8145C25.5888 23.3244 27.9994 20.7814 30.7676 20.7814C32.3437 20.7814 33.7345 21.2715 34.7808 22.3973C38.2643 26.1457 35.3106 31.5231 30.9927 31.5231ZM38.6484 25.6821C38.4232 22.4635 36.198 19.3642 32.5424 18.5695C30.3437 18.0927 28.2245 18.6622 26.5159 19.8278C26.0656 20.1324 25.8537 20.3576 25.4696 20.7284C25.0987 21.0993 24.9133 21.2979 24.6086 21.7483C24.0391 22.596 23.6682 23.3642 23.4166 24.3841C23.3239 24.7682 23.1914 25.6688 23.1914 26.1059C23.1914 28.6092 24.4364 30.8874 26.3835 32.3708C26.6881 32.596 27.2312 32.9404 27.549 33.0728C29.1384 33.7483 29.5623 33.8277 31.3636 33.8277C33.1119 33.8277 35.2179 32.7946 36.4099 31.6026L37.2179 30.6092C38.0788 29.4569 38.5424 28.1324 38.6484 26.7814V25.6821Z" fill="white"/>
<path fill-rule="evenodd" clip-rule="evenodd" d="M0.224609 25.8147C0.224609 27.616 0.568984 29.1921 1.61534 30.5696C2.516 31.7617 3.16501 32.3842 4.56898 33.0862C7.17825 34.3974 10.2246 33.9736 12.5955 32.265C12.8206 32.106 12.8471 31.9604 13.1253 31.8941V31.7485C12.463 31.6955 11.6286 30.967 11.2445 30.3974L9.81402 31.1524C5.85376 32.9537 0.979572 28.5034 2.99282 24.0266C3.35043 23.2319 4.01269 22.3577 4.71467 21.8544C4.84713 21.7617 4.96633 21.6822 5.12527 21.5895C5.35043 21.4438 5.32395 21.4703 5.56236 21.3511C6.56898 20.9008 6.86037 20.808 8.09216 20.808C10.0127 20.808 11.6153 21.9471 12.5292 23.4173C12.6749 23.6425 12.7677 23.8809 12.8869 24.106C13.3504 23.7882 13.9597 22.8213 14.6087 22.3842C14.4763 22.1193 14.1849 21.6557 13.9862 21.4306L13.2047 20.5696C12.7279 20.1061 11.9067 19.5365 11.3107 19.2451C7.36368 17.2584 2.52924 19.0597 0.780898 23.2054C0.515998 23.8676 0.224609 24.861 0.224609 25.8147Z" fill="white"/>
<path fill-rule="evenodd" clip-rule="evenodd" d="M25.6685 4.50332C25.6685 5.32451 25.6684 5.64238 26.0658 6.43708C26.3439 6.98013 26.8738 7.62916 27.3638 7.9073C27.5757 8.02651 27.8141 8.17218 27.9996 8.25165C29.0592 8.67549 30.1055 8.67549 31.1651 8.21191C33.3373 7.25827 34.3175 3.99999 32.2777 1.96026C29.7744 -0.52981 25.6685 1.40398 25.6685 4.50332Z" fill="white"/>
</svg>
