<svg width="23" height="23" viewBox="0 0 23 23" fill="none" xmlns="http://www.w3.org/2000/svg">
<path fill-rule="evenodd" clip-rule="evenodd" d="M20.7348 12.7815C20.7348 11.9603 20.7083 11.5232 20.5626 10.755C20.5229 10.5166 20.4832 10.2252 20.3772 10.053C20.0726 9.60271 19.503 9.58946 19.1984 9.88085C18.6686 10.4107 19.1851 10.9404 19.1851 12.1722C19.1851 14 19.0924 14.6226 18.3507 16.3179C18.2845 16.4636 18.2447 16.4902 18.1785 16.6226C18.0991 16.7551 18.0725 16.8345 17.9931 16.9537C17.8474 17.1789 17.7414 17.3643 17.5825 17.5762C17.3706 17.8544 16.8805 18.4902 16.6288 18.6888C16.2315 19.02 15.9533 19.2848 15.503 19.5895C9.78114 23.3908 2.31096 19.3908 2.31096 12.5033C2.31096 10.7418 2.89373 9.19211 3.75466 7.8941L4.43017 7.01996C4.54937 6.90075 4.56261 6.86099 4.66857 6.74179C4.854 6.52987 5.50302 6.00005 5.75467 5.81462C5.97984 5.64243 6.13878 5.56296 6.37719 5.40402L7.03944 5.03321C8.66858 4.33122 10.2977 3.98677 12.0858 4.29141C12.6156 4.38412 13.0262 4.59606 13.45 4.2252C13.7812 3.92056 13.7414 3.31135 13.3308 3.04645C12.907 2.75506 11.1984 2.66229 10.5626 2.66229C8.33746 2.66229 6.11229 3.5497 4.4699 4.88745C3.74143 5.48347 2.95997 6.29147 2.44341 7.08617C-0.735394 11.9603 0.708314 18.2649 5.79441 21.2848C6.82752 21.8941 8.78777 22.5829 10.0461 22.5696C10.6421 22.5696 10.9202 22.6756 11.8077 22.5431C13.1057 22.3577 13.5957 22.2253 14.7613 21.7484C14.9997 21.6425 15.1454 21.5762 15.3706 21.457L17.0527 20.3312C17.2514 20.1723 17.3441 20.053 17.5163 19.9074C17.9931 19.51 18.4699 18.914 18.8408 18.4107C19.9798 16.861 20.7348 14.8213 20.7348 12.7815Z" fill="white"/>
<path fill-rule="evenodd" clip-rule="evenodd" d="M18.152 7.15238H16.2315V5.23183C16.2315 5.08613 16.5891 4.80804 16.6951 4.70208C17.0129 4.3842 18.0063 3.35108 18.205 3.20538C18.3772 3.57624 18.5229 4.37087 18.7613 4.62253C19.0129 4.87418 19.8076 5.00669 20.1785 5.17888C20.1122 5.27159 18.2977 7.15238 18.152 7.15238ZM10.1255 12.4106C10.1255 12.9802 10.4037 13.2583 10.9732 13.2583C11.3308 13.2583 11.9798 12.4901 12.258 12.1987L12.4036 12.0531C12.4169 12.0398 12.4169 12.0398 12.4302 12.0265L15.5427 8.94042C15.9401 8.54307 15.7811 8.64907 16.7083 8.64907C17.2116 8.64907 17.7149 8.64907 18.205 8.64907C19.1189 8.64907 19.0659 8.4769 20.0195 7.51002C20.2977 7.23187 22.0593 5.50995 22.2182 5.28478C22.4566 4.92716 22.3904 4.49011 22.0858 4.23845C21.9136 4.09276 20.0858 3.49671 19.8871 3.47022C19.8739 3.27154 19.2646 1.44376 19.1189 1.27158C18.4699 0.476875 17.6752 1.50999 17.3308 1.85436L15.1189 4.06626C14.748 4.43712 14.7083 4.43713 14.7083 5.15236V7.36426C14.6951 7.57618 14.6818 7.563 14.4964 7.76168L13.8739 8.3709C13.7944 8.46361 13.7811 8.49013 13.7017 8.5696C12.9732 9.36431 11.5824 10.6888 10.748 11.5232C10.5758 11.7484 10.1255 12.0927 10.1255 12.4106Z" fill="white"/>
<path fill-rule="evenodd" clip-rule="evenodd" d="M5.66211 12.6491C5.66211 13.8014 6.15217 15.0463 6.85415 15.8808L7.14555 16.1987C8.66873 17.7219 10.7615 18.1324 12.7879 17.298C13.0926 17.1788 13.3045 17.0464 13.5694 16.861C13.7018 16.7683 13.8078 16.7153 13.927 16.6093C15.1191 15.563 15.8475 14.4503 15.8475 12.5166C15.8475 11.9603 14.8939 11.5099 14.4436 12.2384C14.3111 12.4371 14.3376 12.8609 14.2846 13.1656C14.2052 13.7219 13.9668 14.3047 13.6754 14.6755C12.576 16.1325 10.8409 16.5828 9.22503 15.8543L8.28464 15.1921C6.70848 13.6822 6.82767 11.1391 8.68198 9.73515C9.05284 9.457 9.64886 9.17881 10.1654 9.11259C10.5363 9.05961 11.5164 9.17883 11.5164 8.30466C11.5164 7.94704 11.1986 7.54968 10.8542 7.54968C9.17206 7.54968 8.05947 8.11926 7.07934 9.08615C6.21841 9.94708 5.66211 11.3246 5.66211 12.6491Z" fill="white"/>
</svg>
