<svg width="30" height="28" viewBox="0 0 30 28" fill="none" xmlns="http://www.w3.org/2000/svg">
<path fill-rule="evenodd" clip-rule="evenodd" d="M28.3333 0.90625L29.0416 1.90625C26.1458 4.09375 22.9478 7.42708 19.4114 11.9479C15.8645 16.4792 13.1718 20.6927 11.3176 24.6146L9.81242 25.625C8.57284 26.4948 7.73429 27.1354 7.29159 27.5625C7.10409 26.9219 6.73429 25.8802 6.13534 24.4375L5.57284 23.1198C4.76034 21.2292 4.01554 19.8385 3.30721 18.9323C2.62492 18.026 1.83846 17.4271 0.973877 17.1354C2.43742 15.599 3.77075 14.8281 4.98429 14.8281C6.01554 14.8281 7.17179 16.2396 8.43742 19.0521L9.06763 20.4688C11.3489 16.625 14.2812 12.8958 17.8385 9.26562C21.427 5.64062 24.9218 2.83854 28.3333 0.90625Z" fill="#92C146"/>
</svg>
