<svg width="23" height="23" viewBox="0 0 23 23" fill="none" xmlns="http://www.w3.org/2000/svg">
<path fill-rule="evenodd" clip-rule="evenodd" d="M17.3133 20.9652H14.6053C14.6793 19.2179 14.6347 17.4674 14.4719 15.7262C14.3783 15.4093 14.2151 15.1177 13.9939 14.8722C13.7899 14.641 13.5463 14.4481 13.2745 14.3025C12.2544 14.0154 11.1884 13.928 10.1352 14.0456C9.78334 14.0476 9.43605 14.1254 9.11701 14.2738C8.6697 14.4961 8.29871 14.8467 8.05141 15.2806C7.80411 15.7146 7.69173 16.2123 7.7285 16.7104V20.9652H5.02033C3.6293 20.9652 3.81689 19.6828 3.81689 18.8594V13.917C3.81689 12.0578 4.0272 11.9732 2.39728 11.984C2.16716 12.01 1.93544 11.9516 1.74518 11.8196C1.66055 11.7497 1.59103 11.6634 1.54076 11.5659C1.4905 11.4683 1.46051 11.3616 1.45274 11.2522C1.45274 10.845 2.15065 10.2753 2.51673 9.90915L10.3827 2.04438C11.2324 1.19466 11.3663 1.45967 12.2951 2.38836L20.4835 10.5755C20.5881 10.6507 20.6763 10.7463 20.7429 10.8566C20.8094 10.967 20.8529 11.0897 20.8705 11.2174C20.8737 11.3483 20.842 11.4776 20.7786 11.5923C20.7153 11.707 20.6225 11.8029 20.5099 11.8699C19.692 12.3277 18.5102 11.3351 18.5165 12.9282C18.5206 13.8835 18.5611 19.7717 18.4941 20.0828C18.4382 20.3483 18.2875 20.5842 18.0702 20.7466C17.8528 20.909 17.5837 20.9868 17.3133 20.9652ZM10.7775 0.293213C10.1508 0.295458 9.54847 1.03027 9.20035 1.37834L1.18449 9.39334C0.908262 9.59009 0.675085 9.84115 0.499506 10.1313C0.323928 10.4214 0.209534 10.7444 0.163382 11.0804C0.125739 11.3802 0.161899 11.6848 0.268492 11.9675C0.375084 12.2503 0.548969 12.5025 0.775176 12.7029C0.95072 12.8876 1.16285 13.0337 1.39809 13.1317C1.63333 13.2296 1.88653 13.2771 2.14127 13.2716C2.68445 13.2596 2.52753 13.2245 2.52753 14.8193C2.52753 15.991 2.44185 19.9541 2.60362 20.5451C2.74205 21.0185 3.02407 21.4372 3.4108 21.7434C3.79754 22.0495 4.26981 22.2279 4.76239 22.254H8.41607C9.23777 22.254 9.06075 21.2534 9.06075 20.7933L9.05962 16.5805C9.0415 16.4392 9.05179 16.2955 9.08976 16.1582C9.12773 16.0208 9.19266 15.8926 9.2808 15.7807C9.36894 15.6687 9.47847 15.5754 9.60306 15.5063C9.72764 15.4372 9.86478 15.3935 10.0064 15.378H12.3274C12.4587 15.3868 12.5868 15.4227 12.7036 15.4834C12.8204 15.5441 12.9233 15.6283 13.006 15.7307C13.1018 15.8407 13.1749 15.9685 13.2209 16.1069C13.267 16.2453 13.2852 16.3915 13.2745 16.537C13.2738 17.1535 13.2198 21.5318 13.2974 21.8001C13.3369 21.9332 13.4189 22.0495 13.5309 22.1315C13.643 22.2135 13.7787 22.2566 13.9175 22.254H17.5712C18.0534 22.2326 18.5172 22.063 18.8991 21.7679C19.281 21.4728 19.5625 21.0668 19.7048 20.6057C19.8202 20.0166 19.8543 19.4145 19.8062 18.8162L19.804 13.6136C19.7927 12.9822 19.9312 13.4571 20.7903 13.1816C21.1309 13.0678 21.4348 12.8647 21.67 12.5933C21.9052 12.3218 22.0631 11.9921 22.1272 11.6387C22.1272 10.265 22.1047 10.3485 21.0637 9.30759L13.1334 1.37834C12.1279 0.372939 12.1076 0.297702 11.1668 0.293213H10.7775Z" fill="white"/>
</svg>
