<svg width="16" height="9" viewBox="0 0 16 9" fill="none" xmlns="http://www.w3.org/2000/svg">
<path fill-rule="evenodd" clip-rule="evenodd" d="M13.3676 1.99314L9.62698 6.08942L9.2918 6.0109C9.15773 5.98473 9.06385 5.9978 8.92978 5.9978L7.61589 3.4458C7.74997 3.21023 7.81699 3.31497 7.97787 2.75222C8.0315 2.569 8.00469 2.39886 7.97787 2.2549C7.93765 2.07168 7.88402 1.90153 7.76335 1.74449C7.49521 1.40422 7.36116 1.29953 6.90531 1.18175C6.42265 1.05088 5.87295 1.27339 5.56458 1.62675C5.14895 2.11097 5.18916 2.56901 5.37686 3.0925L3.25852 5.17331C3.09764 5.31727 2.97696 5.46125 2.82948 5.6052C2.682 5.74916 2.56134 5.86696 2.41386 6.024C2.26638 6.16796 2.11889 6.29884 1.98482 6.4428C1.71667 6.22032 0.992691 6.27261 0.617287 6.54744C0.389363 6.71757 0.201642 6.95314 0.0943834 7.2018L0.013943 7.47665C-0.0128716 7.62061 0.0005619 7.76459 0.0407838 7.90855C0.0675983 8.00016 0.067582 8.0394 0.107804 8.13101C0.389357 8.82463 1.03292 9.13871 1.83736 8.94241C2.09209 8.87697 2.27977 8.70685 2.44066 8.54981C2.74903 8.23572 2.81609 7.85621 2.76246 7.42433C2.73565 7.2542 2.6954 7.21493 2.65518 7.08406L3.0708 6.67836C3.20488 6.5344 3.35235 6.40353 3.48643 6.27266C4.15679 5.6183 4.93443 4.81995 5.6048 4.19177C5.67184 4.12634 5.73888 4.06094 5.81932 3.98241C5.89976 3.90389 5.98017 3.85155 6.0338 3.74685C6.51646 3.87773 5.9936 3.83842 6.81145 3.86459C6.83826 3.94312 6.86509 3.96931 6.90531 4.04783C6.94553 4.12636 6.9455 4.15255 6.99913 4.23107L7.20027 4.61057C7.24049 4.68909 7.24046 4.71529 7.29409 4.79381L8.08516 6.31188C8.20582 6.54745 7.96449 6.39041 7.79019 7.05786C7.66953 7.51591 7.8572 7.974 8.09853 8.24883C8.50075 8.71997 9.19795 8.86391 9.78787 8.56291C10.0158 8.44512 10.2169 8.27496 10.3509 8.03939C10.5387 7.71221 10.5655 7.37199 10.485 7.01864C10.3778 6.61294 10.2035 6.8877 10.8202 6.22026L13.6223 3.13172C13.7296 3.01393 14.0111 2.72607 14.0782 2.60828C14.3463 2.67372 14.467 2.71291 14.7083 2.69982C15.2044 2.66056 15.7809 2.3203 15.915 1.80991C16.0491 1.33877 16.0357 1.06393 15.7943 0.658232C15.3385 -0.113909 14.2257 -0.257861 13.5419 0.501193C13.2469 0.828371 13.1129 1.43043 13.314 1.86231C13.3274 1.88848 13.3408 1.92771 13.3676 1.99314Z" fill="#94C246"/>
</svg>
