<svg width="21" height="22" viewBox="0 0 21 22" fill="none" xmlns="http://www.w3.org/2000/svg">
<path fill-rule="evenodd" clip-rule="evenodd" d="M17.6484 20.1523H3.26433C2.44313 20.1523 1.82058 19.6225 1.82058 18.8013V4.23176C1.82058 3.47679 2.41663 2.88074 3.1716 2.88074H3.97953V3.68875C3.97953 4.01988 4.29743 4.32449 4.7875 4.32449C5.06564 4.32449 5.42323 3.98014 5.42323 3.68875V2.88074H9.74113V3.68875C9.74113 4.01988 10.059 4.32449 10.5491 4.32449C10.8272 4.32449 11.1848 3.98014 11.1848 3.68875V2.88074H15.5027V3.68875C15.5027 4.01988 15.8206 4.32449 16.3107 4.32449C16.5888 4.32449 16.9464 3.98014 16.9464 3.68875V2.88074H17.7544C18.5756 2.88074 19.1054 3.49005 19.1054 4.32449V18.7086C19.0921 19.596 18.5358 20.1523 17.6484 20.1523ZM3.97953 0.642328V1.45034C2.8537 1.45034 2.08551 1.34434 1.18485 2.24501C0.813986 2.61587 0.390137 3.29139 0.390137 4.00662V19.0264C0.390137 20.3112 1.6749 21.596 2.94642 21.596H17.9663C19.251 21.596 20.5226 20.3112 20.5226 19.0264V4.00662C20.5226 2.72185 19.2378 1.45034 17.9663 1.45034H16.9332V0.642328C16.9332 0.311202 16.6153 0.0065918 16.1252 0.0065918C15.8471 0.0065918 15.4895 0.350937 15.4895 0.642328V1.45034H11.1716V0.642328C11.1716 0.311202 10.8537 0.0065918 10.3636 0.0065918C10.0855 0.0065918 9.72787 0.350937 9.72787 0.642328V1.45034H5.41002V0.642328C5.41002 0.311202 5.09211 0.0065918 4.60205 0.0065918C4.33715 0.0065918 3.97953 0.350937 3.97953 0.642328Z" fill="white"/>
<path fill-rule="evenodd" clip-rule="evenodd" d="M6.13844 15.4768C5.74109 15.2119 5.26428 14.4039 4.74773 14.4039C4.21793 14.4039 3.97949 14.6291 3.97949 15.1722C3.97949 15.5563 4.49605 15.9404 4.8934 16.3245C5.13181 16.5629 5.72783 17.2782 6.04571 17.2782C6.52254 17.2782 6.64175 17.1059 7.05235 16.7086C7.30401 16.4569 7.51594 16.245 7.76759 15.9934C8.19143 15.5695 9.01263 14.9072 9.01263 14.4039C9.01263 13.8079 8.24442 13.2648 7.52919 14.139C7.52919 14.1523 7.51593 14.1523 7.51593 14.1655L6.13844 15.4768Z" fill="white"/>
<path fill-rule="evenodd" clip-rule="evenodd" d="M6.13844 9.00003C5.90003 8.84109 5.54241 8.39069 5.1848 8.0993C4.72122 7.72843 3.97949 7.87413 3.97949 8.68208C3.97949 9.06619 4.49605 9.45029 4.8934 9.83439C5.13181 10.0728 5.72783 10.7881 6.04571 10.7881C6.52254 10.7881 6.64175 10.6159 7.05235 10.2185L8.46958 8.80132C8.72123 8.54967 9.02585 8.29803 9.02585 7.91393C9.02585 7.27816 8.33711 7.02648 7.91327 7.30463L7.52919 7.64901C7.52919 7.66225 7.51593 7.66228 7.51593 7.67553L6.13844 9.00003Z" fill="white"/>
<path fill-rule="evenodd" clip-rule="evenodd" d="M10.4565 9.26489C10.4565 9.7682 10.7612 10.0729 11.0923 10.0729H16.3108C16.642 10.0729 16.9466 9.75495 16.9466 9.26489C16.9466 8.98674 16.6022 8.62915 16.3108 8.62915H11.0923C10.8009 8.6424 10.4565 8.98674 10.4565 9.26489Z" fill="white"/>
<path fill-rule="evenodd" clip-rule="evenodd" d="M10.4565 15.7417C10.4565 16.245 10.7612 16.5496 11.0923 16.5496H16.3108C16.642 16.5496 16.9466 16.2318 16.9466 15.7417C16.9466 15.4635 16.6022 15.106 16.3108 15.106H11.0923C10.8009 15.1192 10.4565 15.4635 10.4565 15.7417Z" fill="white"/>
</svg>
