<svg width="9" height="11" viewBox="0 0 9 11" fill="none" xmlns="http://www.w3.org/2000/svg">
<path fill-rule="evenodd" clip-rule="evenodd" d="M4.41716 5.56962C4.41716 6.25836 4.78799 6.44381 5.21183 6.82792L6.44361 7.90076C6.56282 8.01997 6.60255 8.15238 6.60255 8.36431V10.0068H1.70187V8.20537C1.70187 7.82127 1.82109 7.78157 2.04625 7.58289L3.03963 6.72193C3.25155 6.51001 3.41047 6.47034 3.5959 6.12597C3.83431 5.68889 3.72836 5.07956 3.3575 4.74844L2.82774 4.29815C2.78801 4.27166 2.77477 4.25842 2.74828 4.21868C2.70854 4.17895 2.70854 4.17888 2.66881 4.15239L1.83437 3.42393C1.74165 3.31797 1.70187 3.1855 1.70187 2.98682V1.18552H6.60255V2.82789C6.60255 3.22524 6.45688 3.26499 6.29794 3.42393C6.2582 3.46367 6.24495 3.46365 6.20521 3.49014L5.47675 4.13922C5.43702 4.16571 5.43702 4.16569 5.39728 4.20543L5.14562 4.43057C4.80125 4.72196 4.41716 5.05307 4.41716 5.56962ZM0.0727539 0.867652C0.0727539 1.03984 0.218491 1.19878 0.364187 1.19878H1.05287V3.17227C1.05287 3.47691 1.21183 3.72858 1.39726 3.92725L1.98004 4.44383C2.21845 4.62926 2.64227 5.03988 2.86744 5.21206C3.11909 5.41074 3.10586 5.78153 2.88069 5.96696L2.28465 6.48353C2.17869 6.563 2.08601 6.66897 1.9933 6.73519C1.88734 6.81466 1.79458 6.92063 1.70187 6.98685L1.17211 7.55638C1.11913 7.66234 1.05287 7.8478 1.05287 8.00674V9.98024H0.364187C0.218491 9.98024 0.0727539 10.1524 0.0727539 10.2981C0.0727539 10.4571 0.218491 10.6292 0.364187 10.6292H7.94031C8.00653 10.6292 8.09928 10.563 8.13901 10.5365C8.35093 10.3246 8.17872 9.98024 7.94031 9.98024H7.25154V8.17894C7.25154 7.62264 6.85418 7.37093 6.49656 7.0398L5.30456 6.00673C4.99992 5.75508 4.99991 5.42393 5.2913 5.15903L5.45023 5.02661C5.48997 5.00012 5.48997 5.00014 5.5297 4.9604L6.3774 4.20543C6.62906 3.96702 6.93369 3.78159 7.11912 3.46371C7.1721 3.37099 7.25154 3.14578 7.25154 3.00008V1.15908H7.94031C8.086 1.15908 8.23166 0.986831 8.23166 0.841136C8.23166 0.682195 8.086 0.51001 7.94031 0.51001H0.364187C0.297962 0.51001 0.191969 0.563 0.165479 0.602735C0.125744 0.69545 0.0727539 0.801426 0.0727539 0.867652Z" fill="#94C246"/>
<path fill-rule="evenodd" clip-rule="evenodd" d="M2.03297 2.74838C2.03297 3.14573 1.99326 3.22522 2.21842 3.42389L3.41051 4.45704C3.82111 4.81466 4.03299 5.02657 4.03299 5.68882C4.03299 6.24511 3.59589 6.61598 3.19854 6.93386L2.74826 7.33119C2.72177 7.35768 2.70854 7.37091 2.68205 7.3974C2.64231 7.42389 2.64224 7.42388 2.6025 7.46361C2.56277 7.4901 2.54952 7.51659 2.52303 7.54308L2.23168 7.79474C2.11248 7.88745 2.03297 7.96696 2.03297 8.16564V9.49014C2.03297 9.60935 2.08596 9.70202 2.20517 9.70202H6.11247C6.23167 9.70202 6.28466 9.60935 6.28466 9.49014V8.32457C6.28466 8.21861 6.25819 8.15239 6.21845 8.08617C6.16547 7.99345 5.54297 7.49016 5.41052 7.35771L5.0794 7.06628C5.02642 7.0133 4.98661 6.98684 4.92038 6.93386L4.43032 6.49675C4.37734 6.43052 4.35088 6.41729 4.2979 6.33782C3.95353 5.82126 4.03304 5.21197 4.41715 4.7484L6.04626 3.31791C6.25818 3.10599 6.2714 3.17225 6.2714 2.7749C6.2714 2.65569 6.20518 2.5365 6.11247 2.5365H2.17873C2.08602 2.51001 2.03297 2.61593 2.03297 2.74838Z" fill="#94C246"/>
</svg>
