<svg width="11" height="13" viewBox="0 0 11 13" fill="none" xmlns="http://www.w3.org/2000/svg">
<path fill-rule="evenodd" clip-rule="evenodd" d="M0.812419 10.6666C0.921793 10.9843 1.09367 11.2656 1.43742 11.5468C1.50513 11.5989 1.58846 11.6666 1.68221 11.7187C1.76034 11.7604 1.83846 11.8125 1.93221 11.8385C2.04158 11.8802 2.17179 11.9323 2.30721 11.9583C2.43742 11.9843 2.59888 12.0156 2.76034 12.0156H8.34888C8.47908 12.0156 8.62492 12 8.76034 11.9739C8.92179 11.9323 9.052 11.8958 9.16138 11.8385C9.26554 11.802 9.37492 11.7448 9.47909 11.6823C9.58846 11.6145 9.69263 11.5468 9.78638 11.4531C10.401 10.8385 10.3853 10.3333 10.3853 9.59892V9.53121C10.3853 9.31767 10.3749 9.10413 10.3489 8.89579C10.3176 8.64058 10.2655 8.401 10.2291 8.19788C10.1197 7.74475 9.94784 7.28121 9.68221 6.89579C9.46867 6.54683 9.16138 6.26558 8.78638 6.07808C8.62492 5.99996 8.46867 5.94788 8.29159 5.90621C8.10409 5.86454 7.92179 5.85413 7.73429 5.85413C7.54679 5.85413 7.34888 5.97392 7.10409 6.13538C6.54679 6.49475 5.68221 7.05204 4.41138 6.401C4.33325 6.34892 4.22908 6.28121 4.11971 6.2135C3.8645 6.04163 3.59888 5.85413 3.29159 5.85413C2.65096 5.85413 2.13534 6.10413 1.73429 6.49475C1.28117 6.94788 0.999918 7.5885 0.864502 8.23954L0.854085 8.35933C0.812419 8.53121 0.786377 8.70829 0.760335 8.88017L0.718669 9.23954C0.708251 9.35933 0.708252 9.49475 0.708252 9.61454C0.708252 10.0156 0.718669 10.3489 0.812419 10.6666ZM1.10409 9.61454C1.10409 9.98433 1.11971 10.2812 1.19784 10.5468C1.28117 10.802 1.427 11.0156 1.69263 11.2395C1.74471 11.2812 1.81242 11.3333 1.88013 11.375C1.94784 11.4114 2.01554 11.4375 2.07804 11.4687C2.17179 11.5052 2.28117 11.5468 2.40096 11.5729C2.50513 11.5989 2.62492 11.6145 2.76034 11.6145H8.34888C8.46867 11.6145 8.57284 11.5989 8.68221 11.5729C8.802 11.5468 8.92179 11.5208 8.99992 11.4791C9.10409 11.4375 9.19784 11.3854 9.28117 11.3489C9.35929 11.2916 9.43742 11.2395 9.50513 11.1614C9.99992 10.6823 9.99992 10.2395 9.99992 9.59892L9.98429 9.53121C9.98429 9.33329 9.97388 9.13538 9.95825 8.94788C9.92179 8.71871 9.88013 8.47913 9.83846 8.28121C9.74471 7.88017 9.58846 7.45308 9.35929 7.10413C9.16138 6.82808 8.92179 6.5885 8.6145 6.43746C8.49471 6.37496 8.34888 6.33329 8.19784 6.29163C8.052 6.26558 7.89575 6.25517 7.73429 6.25517C7.66659 6.25517 7.50513 6.34892 7.31763 6.46871C6.69263 6.88017 5.69263 7.50517 4.22909 6.74475C4.11971 6.69267 4.01554 6.61454 3.89575 6.53121C3.69263 6.401 3.47909 6.25517 3.29159 6.25517C2.77075 6.25517 2.34888 6.45308 2.01554 6.77079C1.62492 7.17183 1.37492 7.73433 1.26554 8.30725L1.2395 8.43746C1.21346 8.59892 1.17179 8.76038 1.16138 8.93225L1.11971 9.26558C1.10408 9.37496 1.10409 9.49475 1.10409 9.61454ZM5.59888 0.880168H5.34888C5.17179 0.880168 5.01554 0.906209 4.85409 0.947876C4.69263 0.984333 4.54679 1.04163 4.41138 1.10413C4.01554 1.30725 3.64054 1.62496 3.38534 2.01558C3.14575 2.37496 2.99992 2.80204 2.99992 3.22913V3.28121C2.99992 3.56246 2.99992 3.70829 3.07804 3.99996C3.14575 4.2135 3.19784 4.33329 3.29159 4.54683C3.59888 5.10413 4.09367 5.50517 4.66659 5.70829C5.22909 5.90621 5.88013 5.89579 6.49471 5.64058C6.57284 5.59892 6.69263 5.54683 6.802 5.47913C6.89575 5.41142 6.98429 5.34892 7.052 5.29163C7.19784 5.14579 7.33325 5.026 7.45304 4.88017C7.56242 4.74475 7.65096 4.59892 7.74471 4.41142C7.99992 3.86454 8.04159 3.29163 7.89575 2.76038C7.76034 2.2135 7.427 1.70829 6.94784 1.34892C6.83846 1.26558 6.70825 1.18746 6.57284 1.11975C6.427 1.05204 6.28117 0.999959 6.14575 0.958293C6.052 0.932251 5.97388 0.921833 5.88013 0.906209C5.78638 0.895792 5.69263 0.880168 5.59888 0.880168ZM5.34888 0.479126C5.14575 0.494751 4.94784 0.520793 4.76034 0.562459C4.57284 0.598918 4.40096 0.666626 4.2395 0.744751C3.77075 0.973918 3.34888 1.34892 3.052 1.80204C2.77075 2.2135 2.59888 2.70829 2.59888 3.22913V3.28121C2.59888 3.59892 2.59888 3.76038 2.69263 4.10413C2.70825 4.18746 2.73429 4.23954 2.76034 4.31767C2.802 4.45309 2.8645 4.59892 2.93221 4.73433C3.29158 5.38538 3.8645 5.85413 4.53117 6.09371C5.18742 6.30725 5.93221 6.30725 6.65096 6.01558C6.74471 5.97392 6.88013 5.89579 7.01554 5.81246C7.13534 5.73433 7.25513 5.651 7.31763 5.57288C7.47909 5.42704 7.62492 5.29163 7.74471 5.14579C7.88013 4.97392 7.99992 4.80204 8.10409 4.5885C8.40096 3.95829 8.43742 3.28121 8.28117 2.651C8.11971 2.026 7.74471 1.45309 7.18742 1.026C7.052 0.932252 6.90617 0.8385 6.74471 0.760376C6.58846 0.682251 6.41138 0.614543 6.2395 0.572876C6.13534 0.546833 6.04158 0.520793 5.93221 0.505168C5.82804 0.494752 5.71867 0.479126 5.6145 0.479126H5.34888ZM7.21346 3.95829C7.28117 3.76038 7.29159 3.53121 7.29159 3.26558C7.29159 3.07808 7.26554 2.90621 7.19784 2.74475C7.14575 2.56246 7.052 2.401 6.94784 2.28121C6.83846 2.13538 6.73429 2.026 6.6145 1.93225C6.49471 1.8385 6.35929 1.74475 6.18742 1.66663C5.97388 1.57288 5.68221 1.52079 5.37492 1.54683C5.09367 1.56246 4.802 1.64058 4.57284 1.77079C4.34888 1.90621 4.16138 2.07808 4.01554 2.28121C3.8645 2.46871 3.76034 2.69267 3.70825 2.93225C3.64054 3.22913 3.64054 3.49475 3.69263 3.74475C3.76034 4.026 3.89575 4.28121 4.06763 4.52079C4.34888 4.88017 4.77075 5.09371 5.22909 5.16142C5.68221 5.22913 6.16138 5.11975 6.53117 4.85413L6.64054 4.76038L6.88013 4.52079C7.04159 4.34892 7.14575 4.16142 7.21346 3.95829ZM7.69263 3.26558C7.69263 3.56246 7.66659 3.82808 7.58846 4.07808C7.50513 4.34892 7.37492 4.57288 7.17179 4.80204C7.11971 4.85413 6.97388 5.01558 6.92179 5.05204C6.8645 5.10413 6.82804 5.13538 6.77075 5.17183C6.31763 5.50517 5.71867 5.62496 5.17179 5.56246C4.6145 5.47913 4.09367 5.2135 3.74471 4.76038C3.53117 4.47913 3.38534 4.17183 3.30721 3.8385C3.2395 3.53121 3.2395 3.19788 3.31763 2.8385C3.38534 2.54683 3.52075 2.28121 3.69263 2.04163C3.8645 1.80204 4.10409 1.5885 4.35929 1.43746C4.65096 1.26558 4.99992 1.17183 5.34888 1.14579C5.70825 1.11975 6.07804 1.17183 6.35929 1.30725C6.56242 1.41142 6.71867 1.50517 6.8645 1.61454C7.01554 1.73433 7.13534 1.86454 7.26554 2.026C7.38534 2.17183 7.50513 2.38538 7.58846 2.61454C7.65096 2.81246 7.69263 3.04163 7.69263 3.26558ZM3.56242 7.10413C3.45304 7.026 3.29158 6.92183 3.2395 6.92183C3.13534 6.92183 3.04158 6.94788 2.93221 6.97392C2.81242 7.01558 2.70825 7.07808 2.62492 7.11975C2.52075 7.2135 2.50513 7.2135 2.50513 7.22913C2.49471 7.23954 2.46867 7.28121 2.41138 7.33329C2.25513 7.50517 2.13534 7.76038 2.04159 8.026C1.93221 8.30725 1.8645 8.62496 1.82804 8.90621C1.802 9.09371 1.77075 9.37496 1.77075 9.64058C1.76034 9.85413 1.77075 10.052 1.78638 10.1718C1.83846 10.4375 1.95825 10.625 2.14575 10.7448C2.34888 10.8958 2.62492 10.9583 2.97388 10.9583H8.13534C8.427 10.9583 8.65096 10.9218 8.82804 10.8281C8.99992 10.7448 9.13534 10.625 9.22909 10.4375C9.26554 10.375 9.29159 10.2656 9.31763 10.1458C9.34888 10.0156 9.34888 9.88017 9.34888 9.76038L9.31763 9.49475C9.26554 8.74475 9.21346 8.07808 8.76034 7.41142L8.57284 7.19788L8.46867 7.11975C8.38534 7.06767 8.29159 7.01558 8.18742 6.98433C8.09367 6.94788 7.98429 6.92183 7.8645 6.92183C7.81242 6.92183 7.73429 6.98433 7.62492 7.05204C7.56242 7.10413 7.49471 7.14579 7.41138 7.19788L7.25513 7.29163C7.14575 7.35933 7.11971 7.37496 6.88013 7.47913C6.43742 7.66663 5.98429 7.77079 5.53117 7.77079C5.07804 7.76038 4.64054 7.66663 4.19784 7.46871C4.07804 7.41142 3.99992 7.37496 3.92179 7.33329C3.802 7.25517 3.68221 7.18746 3.56242 7.10413ZM3.2395 6.52079C3.427 6.52079 3.62492 6.66663 3.78638 6.77079L3.89575 6.8385L4.11971 6.98433C4.18742 7.026 4.25513 7.05204 4.35929 7.10413C4.74471 7.28121 5.14575 7.37496 5.53117 7.37496C5.93221 7.37496 6.33325 7.28121 6.73429 7.10413C6.94784 7.01558 6.95825 6.99996 7.02596 6.95829L7.40096 6.73433C7.56242 6.61454 7.69263 6.52079 7.8645 6.52079C8.02596 6.52079 8.18742 6.56246 8.31763 6.61454C8.45304 6.651 8.57284 6.71871 8.68221 6.78642C8.74471 6.82808 8.802 6.86454 8.83846 6.90621C8.88013 6.93225 8.92179 6.98433 8.97388 7.05204L9.01554 7.09371C9.02596 7.11975 9.052 7.14579 9.07804 7.18746C9.59888 7.93225 9.65096 8.651 9.71867 9.46871L9.73429 9.73433C9.74471 9.88017 9.73429 10.052 9.70825 10.2135C9.68221 10.375 9.64054 10.5312 9.57284 10.6406C9.43742 10.8958 9.25513 11.0677 8.99992 11.1875C8.77075 11.3073 8.47908 11.3593 8.13534 11.3593H2.97388C2.54679 11.3593 2.18742 11.2656 1.92179 11.0781C1.64054 10.8958 1.45304 10.6145 1.40096 10.2395C1.37492 10.0937 1.35929 9.86454 1.37492 9.64058C1.37492 9.34892 1.40096 9.04163 1.43742 8.85413C1.47909 8.54683 1.54679 8.2135 1.65096 7.90621C1.76034 7.5885 1.92179 7.28121 2.11971 7.06767L2.17179 6.99996C2.21346 6.94788 2.22909 6.92183 2.40096 6.80204C2.49471 6.73433 2.65096 6.651 2.81242 6.59892C2.94784 6.56246 3.09367 6.52079 3.2395 6.52079Z" fill="#92C146"/>
</svg>
